<svg width="12" height="13" viewBox="0 0 12 13" fill="none" xmlns="http://www.w3.org/2000/svg">
<path d="M5.30033 2.42532C3.14858 2.65962 1.47021 4.48622 1.47021 6.70491C1.47021 7.84627 1.92362 8.94089 2.73068 9.74795C3.53775 10.555 4.63236 11.0084 5.77372 11.0084C7.98763 11.0084 9.81423 9.33483 10.0533 7.18308C10.0964 6.80533 9.68035 6.50408 9.31694 6.72882C8.9266 6.97798 8.47646 7.11763 8.01364 7.13318C7.55082 7.14873 7.09233 7.03959 6.68615 6.81719C6.27996 6.59479 5.94102 6.26731 5.7048 5.86901C5.46857 5.47071 5.34374 5.01624 5.34337 4.55316C5.34337 4.0463 5.4916 3.56814 5.74503 3.17126C5.96021 2.85088 5.7259 2.39184 5.30033 2.42532Z" fill="white"/>
</svg>
