<svg width="13" height="13" viewBox="0 0 13 13" fill="none" xmlns="http://www.w3.org/2000/svg">
<g clip-path="url(#clip0_5208_11736)">
<path d="M6.67297 3.83684C5.23168 3.83684 4.06194 5.00658 4.06194 6.44787C4.06194 7.88916 5.23168 9.0589 6.67297 9.0589C8.11425 9.0589 9.28399 7.88916 9.28399 6.44787C9.28399 5.00658 8.11425 3.83684 6.67297 3.83684ZM1.45092 6.97008H2.49533C2.78254 6.97008 3.01753 6.73508 3.01753 6.44787C3.01753 6.16066 2.78254 5.92566 2.49533 5.92566H1.45092C1.1637 5.92566 0.928711 6.16066 0.928711 6.44787C0.928711 6.73508 1.1637 6.97008 1.45092 6.97008ZM10.8506 6.97008H11.895C12.1822 6.97008 12.4172 6.73508 12.4172 6.44787C12.4172 6.16066 12.1822 5.92566 11.895 5.92566H10.8506C10.5634 5.92566 10.3284 6.16066 10.3284 6.44787C10.3284 6.73508 10.5634 6.97008 10.8506 6.97008ZM6.15076 1.22582V2.27023C6.15076 2.55744 6.38576 2.79243 6.67297 2.79243C6.96018 2.79243 7.19517 2.55744 7.19517 2.27023V1.22582C7.19517 0.938606 6.96018 0.703613 6.67297 0.703613C6.38576 0.703613 6.15076 0.938606 6.15076 1.22582ZM6.15076 10.6255V11.6699C6.15076 11.9571 6.38576 12.1921 6.67297 12.1921C6.96018 12.1921 7.19517 11.9571 7.19517 11.6699V10.6255C7.19517 10.3383 6.96018 10.1033 6.67297 10.1033C6.38576 10.1033 6.15076 10.3383 6.15076 10.6255ZM3.53451 2.57311C3.4862 2.5247 3.42882 2.48629 3.36565 2.46009C3.30247 2.43388 3.23475 2.42039 3.16636 2.42039C3.09797 2.42039 3.03025 2.43388 2.96707 2.46009C2.9039 2.48629 2.84652 2.5247 2.79821 2.57311C2.7498 2.62142 2.71139 2.6788 2.68518 2.74198C2.65898 2.80515 2.64549 2.87287 2.64549 2.94126C2.64549 3.00965 2.65898 3.07738 2.68518 3.14055C2.71139 3.20372 2.7498 3.26111 2.79821 3.30942L3.35174 3.86295C3.5554 4.06661 3.88961 4.06661 4.08805 3.86295C4.28649 3.65929 4.29171 3.32508 4.08805 3.12665L3.53451 2.57311ZM9.99419 9.03279C9.94588 8.98438 9.8885 8.94597 9.82533 8.91976C9.76215 8.89356 9.69443 8.88007 9.62604 8.88007C9.55765 8.88007 9.48993 8.89356 9.42675 8.91976C9.36358 8.94597 9.3062 8.98438 9.25788 9.03279C9.20947 9.0811 9.17107 9.13848 9.14486 9.20165C9.11866 9.26483 9.10517 9.33255 9.10517 9.40094C9.10517 9.46933 9.11866 9.53705 9.14486 9.60023C9.17107 9.6634 9.20947 9.72078 9.25788 9.7691L9.81142 10.3226C10.0151 10.5263 10.3493 10.5263 10.5477 10.3226C10.5961 10.2743 10.6345 10.2169 10.6608 10.1538C10.687 10.0906 10.7004 10.0229 10.7004 9.95448C10.7004 9.88609 10.687 9.81837 10.6608 9.75519C10.6345 9.69202 10.5961 9.63463 10.5477 9.58632L9.99419 9.03279ZM10.5477 3.30942C10.5961 3.26111 10.6345 3.20372 10.6608 3.14055C10.687 3.07738 10.7004 3.00965 10.7004 2.94126C10.7004 2.87287 10.687 2.80515 10.6608 2.74198C10.6345 2.6788 10.5961 2.62142 10.5477 2.57311C10.4994 2.5247 10.442 2.48629 10.3789 2.46009C10.3157 2.43388 10.248 2.42039 10.1796 2.42039C10.1112 2.42039 10.0435 2.43388 9.98029 2.46009C9.91712 2.48629 9.85973 2.5247 9.81142 2.57311L9.25788 3.12665C9.05422 3.33031 9.05422 3.66452 9.25788 3.86295C9.46154 4.06139 9.79576 4.06661 9.99419 3.86295L10.5477 3.30942ZM4.08805 9.7691C4.13646 9.72078 4.17487 9.6634 4.20107 9.60023C4.22728 9.53705 4.24077 9.46933 4.24077 9.40094C4.24077 9.33255 4.22728 9.26483 4.20107 9.20165C4.17487 9.13848 4.13646 9.0811 4.08805 9.03279C4.03974 8.98438 3.98236 8.94597 3.91918 8.91976C3.85601 8.89356 3.78829 8.88007 3.7199 8.88007C3.6515 8.88007 3.58378 8.89356 3.52061 8.91976C3.45744 8.94597 3.40005 8.98438 3.35174 9.03279L2.79821 9.58632C2.59455 9.78998 2.59455 10.1242 2.79821 10.3226C3.00187 10.5211 3.33608 10.5263 3.53451 10.3226L4.08805 9.7691Z" fill="white"/>
</g>
<defs>
<clipPath id="clip0_5208_11736">
<rect width="12.5329" height="12.5329" fill="white" transform="translate(0.405762 0.181396)"/>
</clipPath>
</defs>
</svg>
